<svg width="455" height="60" viewBox="0 0 455 60" fill="none" xmlns="http://www.w3.org/2000/svg">
<path d="M2.97852 12.6484H10.3027V27.2969H25.6348V12.6484H33.0078V48H25.6348V33.3516H10.3027V48H2.97852V12.6484ZM50.8301 48.5371C48.1445 48.5371 45.8171 47.9837 43.8477 46.877C41.8945 45.7702 40.389 44.1914 39.3311 42.1406C38.2731 40.0736 37.7441 37.6484 37.7441 34.8652C37.7441 32.1471 38.265 29.7546 39.3066 27.6875C40.3646 25.6042 41.862 23.9928 43.7988 22.8535C45.7357 21.7142 47.9818 21.1445 50.5371 21.1445C52.9134 21.1445 55.0374 21.6491 56.9092 22.6582C58.7972 23.651 60.2783 25.1566 61.3525 27.1748C62.443 29.193 62.9883 31.6589 62.9883 34.5723V36.623H44.873C44.873 37.9414 45.1172 39.0889 45.6055 40.0654C46.11 41.042 46.818 41.7988 47.7295 42.3359C48.6572 42.8568 49.7396 43.1172 50.9766 43.1172C52.1647 43.1172 53.1901 42.8812 54.0527 42.4092C54.9154 41.9209 55.5339 41.2617 55.9082 40.4316H62.793C62.4512 42.0592 61.7513 43.4834 60.6934 44.7041C59.6354 45.9248 58.2601 46.8688 56.5674 47.5361C54.891 48.2035 52.9785 48.5371 50.8301 48.5371ZM56.1523 32.082C56.1523 31.0241 55.9163 30.0801 55.4443 29.25C54.9886 28.4036 54.3457 27.7445 53.5156 27.2725C52.6855 26.8005 51.7415 26.5645 50.6836 26.5645C49.6094 26.5645 48.6328 26.8086 47.7539 27.2969C46.8913 27.7852 46.1995 28.4525 45.6787 29.2988C45.1742 30.1452 44.9056 31.0729 44.873 32.082H56.1523ZM74.7559 48H67.5293V12.6484H74.7559V48ZM87.5977 48H80.3711V12.6484H87.5977V48ZM105.127 48.5371C102.49 48.5371 100.195 47.9674 98.2422 46.8281C96.2891 45.6888 94.7835 44.0856 93.7256 42.0186C92.6676 39.9352 92.1387 37.5345 92.1387 34.8164C92.1387 32.0983 92.6595 29.7057 93.7012 27.6387C94.7591 25.5716 96.2646 23.9766 98.2178 22.8535C100.187 21.7142 102.49 21.1445 105.127 21.1445C107.764 21.1445 110.067 21.7142 112.036 22.8535C114.006 23.9766 115.519 25.5716 116.577 27.6387C117.635 29.7057 118.164 32.0983 118.164 34.8164C118.164 37.5345 117.635 39.9352 116.577 42.0186C115.519 44.0856 114.006 45.6888 112.036 46.8281C110.067 47.9674 107.764 48.5371 105.127 48.5371ZM105.176 42.9219C106.38 42.9219 107.406 42.5801 108.252 41.8965C109.098 41.1966 109.733 40.2363 110.156 39.0156C110.579 37.7949 110.791 36.3952 110.791 34.8164C110.791 33.2376 110.579 31.8379 110.156 30.6172C109.733 29.3802 109.098 28.4118 108.252 27.7119C107.406 27.012 106.38 26.6621 105.176 26.6621C103.955 26.6621 102.913 27.012 102.051 27.7119C101.204 28.4118 100.562 29.3802 100.122 30.6172C99.6826 31.8379 99.4629 33.2376 99.4629 34.8164C99.4629 36.3789 99.6826 37.7786 100.122 39.0156C100.562 40.2363 101.204 41.1966 102.051 41.8965C102.913 42.5801 103.955 42.9219 105.176 42.9219ZM126.367 58.3027H121.191L123.633 44.3867H130.566L126.367 58.3027ZM166.309 22.7559C166.162 21.3561 165.552 20.2656 164.478 19.4844C163.403 18.7031 161.979 18.3125 160.205 18.3125C158.984 18.3125 157.935 18.4915 157.056 18.8496C156.193 19.1914 155.534 19.6715 155.078 20.29C154.622 20.9085 154.395 21.6165 154.395 22.4141C154.395 23.5534 154.907 24.4648 155.933 25.1484C156.958 25.832 158.333 26.3691 160.059 26.7598L163.232 27.541C166.504 28.2734 169.084 29.486 170.972 31.1787C172.876 32.8551 173.828 35.0931 173.828 37.8926C173.828 40.0573 173.283 41.9372 172.192 43.5322C171.102 45.111 169.531 46.3317 167.48 47.1943C165.43 48.057 162.988 48.4883 160.156 48.4883C157.292 48.4883 154.801 48.0488 152.686 47.1699C150.586 46.291 148.95 44.9971 147.778 43.2881C146.623 41.5628 146.012 39.4551 145.947 36.9648H153.076C153.19 38.7064 153.874 40.041 155.127 40.9688C156.396 41.8802 158.04 42.3359 160.059 42.3359C161.328 42.3359 162.443 42.1488 163.403 41.7744C164.364 41.4001 165.104 40.8792 165.625 40.2119C166.146 39.5446 166.406 38.7715 166.406 37.8926C166.406 36.7533 165.91 35.8499 164.917 35.1826C163.94 34.5153 162.419 33.9212 160.352 33.4004L156.494 32.4727C150.081 30.8939 146.875 27.6875 146.875 22.8535C146.875 20.7376 147.445 18.874 148.584 17.2627C149.74 15.6351 151.335 14.3818 153.369 13.5029C155.404 12.6077 157.699 12.1602 160.254 12.1602C162.826 12.1602 165.096 12.6077 167.065 13.5029C169.035 14.3981 170.565 15.6514 171.655 17.2627C172.746 18.8577 173.307 20.6888 173.34 22.7559H166.309ZM195.459 21.4863H202.686V48H195.752V43.2148H195.459C194.824 44.7936 193.807 46.0469 192.407 46.9746C191.024 47.8861 189.355 48.3418 187.402 48.3418C185.628 48.3418 184.066 47.943 182.715 47.1455C181.38 46.348 180.339 45.2005 179.59 43.7031C178.841 42.1895 178.467 40.4154 178.467 38.3809V21.4863H185.693V37.1113C185.693 38.6738 186.108 39.9189 186.938 40.8467C187.785 41.7744 188.916 42.2383 190.332 42.2383C191.243 42.2383 192.09 42.0267 192.871 41.6035C193.652 41.1641 194.279 40.5293 194.751 39.6992C195.223 38.8691 195.459 37.8763 195.459 36.7207V21.4863ZM215.527 48H208.301V21.4863H215.186V26.125H215.479C216.097 24.5625 217.098 23.3418 218.481 22.4629C219.865 21.584 221.517 21.1445 223.438 21.1445C225.277 21.1445 226.888 21.5433 228.271 22.3408C229.655 23.1383 230.721 24.2939 231.47 25.8076C232.218 27.305 232.585 29.071 232.568 31.1055V48H225.391V32.375C225.391 30.7474 224.967 29.4697 224.121 28.542C223.275 27.6143 222.103 27.1504 220.605 27.1504C219.059 27.1504 217.822 27.6387 216.895 28.6152C215.983 29.5918 215.527 30.9427 215.527 32.668V48ZM253.32 29.3477C253.174 28.4199 252.71 27.6794 251.929 27.126C251.147 26.5563 250.163 26.2715 248.975 26.2715C248.193 26.2715 247.485 26.3936 246.851 26.6377C246.232 26.8656 245.744 27.1911 245.386 27.6143C245.028 28.0212 244.857 28.485 244.873 29.0059C244.824 30.2591 245.964 31.138 248.291 31.6426L253.027 32.6191C255.599 33.1562 257.511 34.0107 258.765 35.1826C260.034 36.3545 260.677 37.8926 260.693 39.7969C260.677 41.5221 260.173 43.0439 259.18 44.3623C258.203 45.6807 256.828 46.7061 255.054 47.4385C253.28 48.1709 251.237 48.5371 248.926 48.5371C246.566 48.5371 244.523 48.2035 242.798 47.5361C241.073 46.8525 239.714 45.8841 238.721 44.6309C237.744 43.3613 237.158 41.8639 236.963 40.1387H244.238C244.401 41.1803 244.889 41.9697 245.703 42.5068C246.517 43.0439 247.591 43.3125 248.926 43.3125C250.244 43.3125 251.302 43.0602 252.1 42.5557C252.913 42.0511 253.32 41.3757 253.32 40.5293C253.32 39.8457 253.027 39.2923 252.441 38.8691C251.872 38.4297 250.96 38.0716 249.707 37.7949L245.312 36.916C242.806 36.4277 240.902 35.5407 239.6 34.2549C238.298 32.9691 237.663 31.3496 237.695 29.3965C237.679 27.7201 238.127 26.2633 239.038 25.0264C239.95 23.7731 241.252 22.8128 242.944 22.1455C244.637 21.4782 246.615 21.1445 248.877 21.1445C251.074 21.1445 252.995 21.4782 254.639 22.1455C256.283 22.8128 257.568 23.765 258.496 25.002C259.44 26.2227 259.977 27.6712 260.107 29.3477H253.32ZM272.363 48H265.137V12.6484H272.168V26.125H272.461C273.079 24.5462 274.064 23.3255 275.415 22.4629C276.766 21.584 278.418 21.1445 280.371 21.1445C282.21 21.1445 283.822 21.5433 285.205 22.3408C286.589 23.1383 287.655 24.2858 288.403 25.7832C289.168 27.2806 289.551 29.0547 289.551 31.1055V48H282.324V32.375C282.324 30.7311 281.901 29.4535 281.055 28.542C280.225 27.6143 279.053 27.1504 277.539 27.1504C276.53 27.1504 275.635 27.3701 274.854 27.8096C274.072 28.2327 273.462 28.8594 273.022 29.6895C272.583 30.5195 272.363 31.5124 272.363 32.668V48ZM295.117 21.4863H302.344V48H295.117V21.4863ZM298.73 18.0195C298.014 18.0195 297.347 17.8568 296.729 17.5312C296.126 17.1895 295.646 16.7419 295.288 16.1885C294.946 15.6188 294.775 15.0085 294.775 14.3574C294.775 13.6901 294.946 13.0716 295.288 12.502C295.646 11.9323 296.126 11.4847 296.729 11.1592C297.347 10.8174 298.014 10.6465 298.73 10.6465C299.43 10.6465 300.081 10.8174 300.684 11.1592C301.286 11.4847 301.758 11.9323 302.1 12.502C302.458 13.0716 302.637 13.6901 302.637 14.3574C302.637 15.0085 302.458 15.6188 302.1 16.1885C301.758 16.7419 301.286 17.1895 300.684 17.5312C300.081 17.8568 299.43 18.0195 298.73 18.0195ZM315.186 48H307.959V21.4863H314.844V26.125H315.137C315.755 24.5625 316.756 23.3418 318.14 22.4629C319.523 21.584 321.175 21.1445 323.096 21.1445C324.935 21.1445 326.546 21.5433 327.93 22.3408C329.313 23.1383 330.379 24.2939 331.128 25.8076C331.877 27.305 332.243 29.071 332.227 31.1055V48H325.049V32.375C325.049 30.7474 324.626 29.4697 323.779 28.542C322.933 27.6143 321.761 27.1504 320.264 27.1504C318.717 27.1504 317.48 27.6387 316.553 28.6152C315.641 29.5918 315.186 30.9427 315.186 32.668V48ZM349.854 48.5371C347.168 48.5371 344.84 47.9837 342.871 46.877C340.918 45.7702 339.412 44.1914 338.354 42.1406C337.297 40.0736 336.768 37.6484 336.768 34.8652C336.768 32.1471 337.288 29.7546 338.33 27.6875C339.388 25.6042 340.885 23.9928 342.822 22.8535C344.759 21.7142 347.005 21.1445 349.561 21.1445C351.937 21.1445 354.061 21.6491 355.933 22.6582C357.821 23.651 359.302 25.1566 360.376 27.1748C361.466 29.193 362.012 31.6589 362.012 34.5723V36.623H343.896C343.896 37.9414 344.141 39.0889 344.629 40.0654C345.133 41.042 345.841 41.7988 346.753 42.3359C347.681 42.8568 348.763 43.1172 350 43.1172C351.188 43.1172 352.214 42.8812 353.076 42.4092C353.939 41.9209 354.557 41.2617 354.932 40.4316H361.816C361.475 42.0592 360.775 43.4834 359.717 44.7041C358.659 45.9248 357.284 46.8688 355.591 47.5361C353.914 48.2035 352.002 48.5371 349.854 48.5371ZM355.176 32.082C355.176 31.0241 354.94 30.0801 354.468 29.25C354.012 28.4036 353.369 27.7445 352.539 27.2725C351.709 26.8005 350.765 26.5645 349.707 26.5645C348.633 26.5645 347.656 26.8086 346.777 27.2969C345.915 27.7852 345.223 28.4525 344.702 29.2988C344.198 30.1452 343.929 31.0729 343.896 32.082H355.176ZM374.512 37.4043H368.262L367.627 12.6484H375.146L374.512 37.4043ZM371.436 48.4395C370.687 48.4395 369.995 48.2523 369.36 47.8779C368.726 47.5036 368.221 47.0072 367.847 46.3887C367.489 45.7539 367.318 45.0703 367.334 44.3379C367.318 43.6055 367.489 42.93 367.847 42.3115C368.221 41.693 368.726 41.2048 369.36 40.8467C369.995 40.4723 370.687 40.2852 371.436 40.2852C372.135 40.2852 372.795 40.4723 373.413 40.8467C374.048 41.2048 374.552 41.693 374.927 42.3115C375.301 42.93 375.488 43.6055 375.488 44.3379C375.488 45.0703 375.301 45.7539 374.927 46.3887C374.552 47.0072 374.048 47.5036 373.413 47.8779C372.795 48.2523 372.135 48.4395 371.436 48.4395Z" fill="white"/>
<path d="M443.75 45.5376C444.105 45.5376 444.445 45.6786 444.695 45.9292C444.946 46.18 445.088 46.5208 445.088 46.8755C445.088 47.2301 444.946 47.5701 444.695 47.8208C444.444 48.0715 444.105 48.2124 443.75 48.2124H406.25C405.895 48.2124 405.556 48.0715 405.305 47.8208C405.054 47.5701 404.912 47.2301 404.912 46.8755C404.912 46.5208 405.054 46.18 405.305 45.9292C405.555 45.6786 405.895 45.5376 406.25 45.5376H443.75ZM419.768 18.2827C421.915 17.5568 424.19 17.2851 426.447 17.4858C428.705 17.6866 430.896 18.3553 432.882 19.4487C434.867 20.5421 436.603 22.0368 437.979 23.8374C439.356 25.6381 440.343 27.706 440.877 29.9087C441.374 31.957 441.469 34.0808 441.159 36.1626H451.25C451.605 36.1626 451.945 36.3036 452.195 36.5542C452.446 36.805 452.588 37.1458 452.588 37.5005C452.588 37.8551 452.446 38.1951 452.195 38.4458C451.944 38.6965 451.605 38.8374 451.25 38.8374H398.75C398.395 38.8374 398.056 38.6965 397.805 38.4458C397.554 38.1951 397.412 37.8551 397.412 37.5005C397.412 37.1458 397.554 36.805 397.805 36.5542C398.055 36.3036 398.395 36.1626 398.75 36.1626H408.841C408.723 35.3642 408.662 34.558 408.662 33.7505V33.7495C408.664 31.483 409.137 29.2413 410.052 27.1675C410.966 25.0938 412.302 23.2331 413.975 21.7036C415.647 20.174 417.62 19.0087 419.768 18.2827ZM426.373 20.1597C424.473 19.9677 422.554 20.1764 420.739 20.772C418.925 21.3675 417.256 22.3363 415.839 23.6167C414.422 24.8973 413.289 26.4612 412.514 28.2065C411.738 29.9519 411.338 31.8407 411.338 33.7505C411.338 34.5595 411.409 35.3667 411.552 36.1626H438.448C438.766 34.3919 438.73 32.5749 438.343 30.8159C437.932 28.9508 437.136 27.1919 436.004 25.6538C434.872 24.1157 433.429 22.8327 431.771 21.8862C430.112 20.9398 428.273 20.3516 426.373 20.1597ZM448.776 21.3032C449.094 21.1445 449.461 21.1188 449.798 21.231C450.135 21.3432 450.414 21.5844 450.572 21.9019C450.731 22.2192 450.757 22.5868 450.645 22.9233C450.532 23.2599 450.291 23.5381 449.974 23.6968L446.224 25.5718C446.066 25.6505 445.895 25.6979 445.72 25.7104C445.545 25.7229 445.369 25.7005 445.202 25.645C445.035 25.5894 444.881 25.5014 444.748 25.3862C444.615 25.271 444.506 25.1304 444.428 24.9731C444.349 24.8162 444.303 24.6452 444.29 24.4702C444.278 24.2949 444.3 24.1184 444.355 23.9517C444.411 23.785 444.499 23.6312 444.614 23.4985C444.729 23.3659 444.869 23.2567 445.026 23.1782L448.776 21.3032ZM400.72 21.1655C400.895 21.178 401.066 21.2245 401.224 21.3032L404.974 23.1782C405.291 23.3369 405.532 23.6152 405.645 23.9517C405.757 24.2882 405.731 24.6558 405.572 24.9731C405.414 25.2906 405.135 25.5328 404.798 25.645C404.461 25.7571 404.094 25.7304 403.776 25.5718L400.026 23.6968C399.869 23.6183 399.729 23.5099 399.614 23.3774C399.499 23.2447 399.411 23.0901 399.355 22.9233C399.3 22.7566 399.278 22.5801 399.29 22.4048C399.303 22.2298 399.349 22.0588 399.428 21.9019C399.506 21.7446 399.615 21.604 399.748 21.4888C399.881 21.3736 400.035 21.2855 400.202 21.23C400.369 21.1745 400.545 21.1531 400.72 21.1655ZM413.151 8.17822C413.469 8.01954 413.836 7.9938 414.173 8.10596C414.51 8.21818 414.789 8.45944 414.947 8.77686L416.822 12.5269C416.981 12.8442 417.007 13.2118 416.895 13.5483C416.782 13.8849 416.541 14.1631 416.224 14.3218C415.906 14.4804 415.539 14.5071 415.202 14.395C414.865 14.2828 414.586 14.0406 414.428 13.7231L412.553 9.97314C412.394 9.65583 412.368 9.28816 412.48 8.95166C412.593 8.61515 412.834 8.33691 413.151 8.17822ZM436.345 8.04053C436.52 8.05298 436.691 8.09964 436.849 8.17822C437.006 8.2568 437.146 8.36582 437.261 8.49854C437.376 8.63121 437.464 8.78506 437.52 8.95166C437.575 9.11836 437.597 9.29493 437.585 9.47021C437.572 9.64524 437.526 9.81618 437.447 9.97314L435.572 13.7231C435.414 14.0406 435.135 14.2828 434.798 14.395C434.461 14.5071 434.094 14.4804 433.776 14.3218C433.459 14.1631 433.218 13.8849 433.105 13.5483C432.993 13.2118 433.019 12.8442 433.178 12.5269L435.053 8.77686C435.131 8.61968 435.24 8.4789 435.373 8.36377C435.506 8.24868 435.66 8.16151 435.827 8.10596C435.994 8.05045 436.17 8.02809 436.345 8.04053Z" fill="white" stroke="white" stroke-width="0.8"/>
</svg>
