<svg width="70" height="71" viewBox="0 0 70 71" fill="none" xmlns="http://www.w3.org/2000/svg">
<path d="M58.3327 29.5832C58.3327 44.3541 42.1773 59.7375 36.7523 64.4885C36.2469 64.874 35.6317 65.0824 34.9993 65.0824C34.367 65.0824 33.7518 64.874 33.2464 64.4885C27.8214 59.7375 11.666 44.3541 11.666 29.5832C11.666 23.3064 14.1243 17.2867 18.5002 12.8483C22.876 8.40995 28.811 5.9165 34.9993 5.9165C41.1877 5.9165 47.1227 8.40995 51.4985 12.8483C55.8744 17.2867 58.3327 23.3064 58.3327 29.5832Z" stroke="#717171" stroke-width="2" stroke-linecap="round" stroke-linejoin="round"/>
<path d="M35 38.458C39.8325 38.458 43.75 34.4845 43.75 29.583C43.75 24.6815 39.8325 20.708 35 20.708C30.1675 20.708 26.25 24.6815 26.25 29.583C26.25 34.4845 30.1675 38.458 35 38.458Z" stroke="#717171" stroke-width="2" stroke-linecap="round" stroke-linejoin="round"/>
</svg>
