<svg width="75" height="75" viewBox="0 0 75 75" fill="none" xmlns="http://www.w3.org/2000/svg">
<path d="M48.0478 22.2654C45.8457 22.2641 43.657 22.6081 41.5615 23.2849C40.6196 21.5236 39.3392 19.9654 37.7939 18.7L41.1806 13.863C41.2689 13.7368 41.3315 13.5945 41.3648 13.4441C41.398 13.2937 41.4014 13.1383 41.3746 12.9866C41.3478 12.835 41.2914 12.6901 41.2086 12.5602C41.1258 12.4303 41.0182 12.318 40.892 12.2297C40.7658 12.1414 40.6235 12.0789 40.4731 12.0456C40.3227 12.0123 40.1673 12.009 40.0156 12.0358C39.8639 12.0626 39.719 12.119 39.5892 12.2018C39.4593 12.2846 39.347 12.3921 39.2587 12.5183L35.8749 17.3552C33.5282 15.9676 30.8522 15.2351 28.1259 15.2341C27.6249 15.2341 27.1298 15.2605 26.6435 15.3074L25.6181 9.49195C25.5641 9.18581 25.3907 8.91366 25.136 8.73537C24.8814 8.55708 24.5663 8.48726 24.2602 8.54126C23.9541 8.59526 23.6819 8.76867 23.5036 9.02332C23.3253 9.27798 23.2555 9.59303 23.3095 9.89917L24.3349 15.7117C21.2067 16.5231 18.416 18.3046 16.3632 20.8005L11.5204 17.408C11.2648 17.2296 10.9488 17.1602 10.642 17.2148C10.3351 17.2695 10.0625 17.4438 9.88422 17.6995C9.70589 17.9551 9.63643 18.2711 9.69109 18.578C9.74576 18.8848 9.92009 19.1574 10.1757 19.3357L15.0185 22.7166C13.6233 25.0614 12.8884 27.74 12.8915 30.4685C12.8915 30.9636 12.9179 31.4558 12.9648 31.9334L7.14935 32.9587C6.86052 33.0093 6.60116 33.1664 6.42246 33.3989C6.24376 33.6313 6.1587 33.9224 6.18409 34.2145C6.20948 34.5066 6.34346 34.7786 6.55958 34.9768C6.77571 35.175 7.05827 35.2849 7.3515 35.2849C7.42024 35.2851 7.48887 35.2792 7.55658 35.2673L13.372 34.2419C13.8528 36.1117 14.6839 37.8734 15.8212 39.4334C13.555 41.2565 11.9098 43.7374 11.1123 46.5345C10.3148 49.3315 10.4042 52.307 11.3681 55.0512C12.3321 57.7953 14.1233 60.173 16.4949 61.8568C18.8664 63.5406 21.7018 64.4476 24.6103 64.4529H48.0478C53.6422 64.4529 59.0075 62.2305 62.9633 58.2747C66.9192 54.3188 69.1415 48.9535 69.1415 43.3591C69.1415 37.7647 66.9192 32.3994 62.9633 28.4436C59.0075 24.4878 53.6422 22.2654 48.0478 22.2654ZM15.2353 30.4685C15.235 27.6194 16.1787 24.8504 17.9188 22.5944C19.6589 20.3383 22.0974 18.7224 24.8532 17.999C27.609 17.2757 30.5268 17.4857 33.1506 18.5963C35.7744 19.7069 37.9564 21.6555 39.3554 24.1375C36.6929 25.3387 34.3079 27.0781 32.3506 29.2461C30.3933 31.4142 28.906 33.9641 27.9824 36.7351C26.8788 36.4645 25.7466 36.3277 24.6103 36.3279C22.2094 36.3265 19.8486 36.943 17.7548 38.1179C16.1196 35.9026 15.2366 33.222 15.2353 30.4685ZM48.0478 62.1091H24.6103C22.9547 62.1079 21.3182 61.7558 19.8086 61.0762C18.2989 60.3965 16.9504 59.4047 15.8519 58.1661C14.7534 56.9274 13.9298 55.4701 13.4353 53.8901C12.9409 52.3101 12.7869 50.6432 12.9834 48.9993C13.1799 47.3555 13.7226 45.7719 14.5755 44.3529C15.4284 42.934 16.5724 41.7119 17.9319 40.7671C19.2915 39.8223 20.8358 39.1763 22.4631 38.8717C24.0904 38.5671 25.7638 38.6107 27.373 38.9998C27.1554 40.0278 27.0153 41.0708 26.954 42.1199C26.9362 42.4307 27.0425 42.7358 27.2496 42.9683C27.4568 43.2007 27.7477 43.3413 28.0585 43.3591C28.3693 43.377 28.6745 43.2707 28.9069 43.0635C29.1393 42.8564 29.2799 42.5654 29.2978 42.2546C29.3689 41.0009 29.5652 39.7574 29.8837 38.5427C29.8837 38.5076 29.9042 38.4724 29.9101 38.4373C30.8247 35.059 32.6657 32.0037 35.2252 29.6167C37.7847 27.2296 40.9607 25.6058 44.3945 24.9286C47.8282 24.2515 51.3829 24.548 54.657 25.7847C57.9312 27.0213 60.7942 29.1489 62.9229 31.927C65.0515 34.7052 66.3609 38.0232 66.7032 41.5063C67.0454 44.9894 66.4069 48.4989 64.8597 51.6382C63.3125 54.7775 60.9183 57.4217 57.9475 59.272C54.9767 61.1223 51.5477 62.105 48.0478 62.1091Z" fill="#717171"/>
</svg>
