<svg width="60" height="60" viewBox="0 0 60 60" fill="none" xmlns="http://www.w3.org/2000/svg">
<path d="M48.75 45.5376C49.1046 45.5376 49.4445 45.6786 49.6953 45.9292C49.9461 46.18 50.0879 46.5208 50.0879 46.8755C50.0878 47.2301 49.9461 47.5701 49.6953 47.8208C49.4445 48.0715 49.1046 48.2124 48.75 48.2124H11.25C10.8954 48.2124 10.5555 48.0715 10.3047 47.8208C10.0539 47.5701 9.91221 47.2301 9.91211 46.8755C9.91211 46.5208 10.0539 46.18 10.3047 45.9292C10.5555 45.6786 10.8954 45.5376 11.25 45.5376H48.75ZM24.7676 18.2827C26.9148 17.5568 29.1896 17.2851 31.4473 17.4858C33.705 17.6866 35.8964 18.3553 37.8818 19.4487C39.8671 20.5421 41.603 22.0368 42.9795 23.8374C44.3559 25.6381 45.3427 27.706 45.877 29.9087C46.3737 31.957 46.4688 34.0808 46.1592 36.1626H56.25C56.6046 36.1626 56.9445 36.3036 57.1953 36.5542C57.4461 36.805 57.5879 37.1458 57.5879 37.5005C57.5878 37.8551 57.4461 38.1951 57.1953 38.4458C56.9445 38.6965 56.6046 38.8374 56.25 38.8374H3.75C3.39536 38.8374 3.0555 38.6965 2.80469 38.4458C2.55395 38.1951 2.41221 37.8551 2.41211 37.5005C2.41211 37.1458 2.55386 36.805 2.80469 36.5542C3.05549 36.3036 3.39541 36.1626 3.75 36.1626H13.8408C13.7226 35.3642 13.6624 34.558 13.6621 33.7505V33.7495C13.6635 31.483 14.1373 29.2413 15.0518 27.1675C15.9662 25.0938 17.3021 23.2331 18.9746 21.7036C20.6473 20.174 22.6203 19.0087 24.7676 18.2827ZM31.373 20.1597C29.473 19.9677 27.5538 20.1764 25.7393 20.772C23.925 21.3675 22.2555 22.3363 20.8389 23.6167C19.4221 24.8973 18.2889 26.4612 17.5137 28.2065C16.7384 29.9519 16.3382 31.8407 16.3379 33.7505C16.3378 34.5595 16.4091 35.3667 16.5518 36.1626H43.4482C43.7656 34.3919 43.7299 32.5749 43.3428 30.8159C42.9322 28.9508 42.1359 27.1919 41.0039 25.6538C39.8719 24.1157 38.4293 22.8327 36.7705 21.8862C35.1118 20.9398 33.2731 20.3516 31.373 20.1597ZM53.7764 21.3032C54.0937 21.1445 54.4612 21.1188 54.7979 21.231C55.1345 21.3432 55.4136 21.5844 55.5723 21.9019C55.7308 22.2192 55.7567 22.5868 55.6445 22.9233C55.5323 23.2599 55.2909 23.5381 54.9736 23.6968L51.2236 25.5718C51.0665 25.6505 50.8951 25.6979 50.7197 25.7104C50.5446 25.7229 50.3687 25.7005 50.2021 25.645C50.0354 25.5894 49.8808 25.5014 49.748 25.3862C49.6153 25.271 49.5062 25.1304 49.4277 24.9731C49.3492 24.8162 49.3025 24.6452 49.29 24.4702C49.2775 24.2949 49.2999 24.1184 49.3555 23.9517C49.411 23.785 49.4991 23.6312 49.6143 23.4985C49.7294 23.3659 49.8692 23.2567 50.0264 23.1782L53.7764 21.3032ZM5.71973 21.1655C5.89504 21.178 6.06648 21.2245 6.22363 21.3032L9.97363 23.1782C10.2909 23.3369 10.5323 23.6152 10.6445 23.9517C10.7567 24.2882 10.7308 24.6558 10.5723 24.9731C10.4136 25.2906 10.1345 25.5328 9.79785 25.645C9.46129 25.7571 9.09366 25.7304 8.77637 25.5718L5.02637 23.6968C4.86941 23.6183 4.7293 23.5099 4.61426 23.3774C4.49905 23.2447 4.41106 23.0901 4.35547 22.9233C4.29988 22.7566 4.27752 22.5801 4.29004 22.4048C4.30258 22.2298 4.34923 22.0588 4.42773 21.9019C4.50625 21.7446 4.61528 21.604 4.74805 21.4888C4.88077 21.3736 5.03546 21.2855 5.20215 21.23C5.36871 21.1745 5.54463 21.1531 5.71973 21.1655ZM18.1514 8.17822C18.4687 8.01954 18.8362 7.9938 19.1729 8.10596C19.5095 8.21818 19.7886 8.45944 19.9473 8.77686L21.8223 12.5269C21.9808 12.8442 22.0067 13.2118 21.8945 13.5483C21.7823 13.8849 21.5409 14.1631 21.2236 14.3218C20.9063 14.4804 20.5387 14.5071 20.2021 14.395C19.8655 14.2828 19.5864 14.0406 19.4277 13.7231L17.5527 9.97314C17.3942 9.65583 17.3683 9.28816 17.4805 8.95166C17.5927 8.61515 17.8341 8.33691 18.1514 8.17822ZM41.3447 8.04053C41.52 8.05298 41.6915 8.09964 41.8486 8.17822C42.0057 8.2568 42.1456 8.36582 42.2607 8.49854C42.3758 8.63121 42.464 8.78506 42.5195 8.95166C42.5751 9.11836 42.5974 9.29493 42.585 9.47021C42.5725 9.64524 42.5257 9.81618 42.4473 9.97314L40.5723 13.7231C40.4136 14.0406 40.1345 14.2828 39.7979 14.395C39.4613 14.5071 39.0937 14.4804 38.7764 14.3218C38.4591 14.1631 38.2177 13.8849 38.1055 13.5483C37.9933 13.2118 38.0192 12.8442 38.1777 12.5269L40.0527 8.77686C40.1313 8.61968 40.2403 8.4789 40.373 8.36377C40.5058 8.24868 40.6605 8.16151 40.8271 8.10596C40.9938 8.05045 41.1695 8.02809 41.3447 8.04053Z" fill="white" stroke="white" stroke-width="0.8"/>
</svg>
