<svg width="75" height="75" viewBox="0 0 75 75" fill="none" xmlns="http://www.w3.org/2000/svg">
<path d="M37.4991 68.75C41.0601 68.7506 44.5334 67.6452 47.4389 65.5864C50.3445 63.5276 52.5388 60.6172 53.7187 57.2573C54.8986 53.8974 55.0058 50.254 54.0254 46.8306C53.045 43.4072 51.0255 40.3729 48.246 38.1469C47.8297 37.8312 47.49 37.4255 47.2525 36.9601C47.0149 36.4948 46.8856 35.9817 46.8741 35.4594V15.625C46.8741 13.1386 45.8864 10.754 44.1282 8.99587C42.3701 7.23772 39.9855 6.25 37.4991 6.25C35.0127 6.25 32.6281 7.23772 30.87 8.99587C29.1118 10.754 28.1241 13.1386 28.1241 15.625V35.4625C28.1241 36.5188 27.5772 37.4875 26.7522 38.15C23.9739 40.3763 21.9556 43.4105 20.9759 46.8333C19.9963 50.2561 20.1038 53.8987 21.2835 57.2578C22.4633 60.6169 24.657 63.5268 27.5618 65.5854C30.4665 67.644 33.9388 68.7498 37.4991 68.75Z" stroke="#717171" stroke-width="2"/>
<path d="M45.3125 51.5625C45.3125 53.6345 44.4894 55.6216 43.0243 57.0868C41.5591 58.5519 39.572 59.375 37.5 59.375C35.428 59.375 33.4409 58.5519 31.9757 57.0868C30.5106 55.6216 29.6875 53.6345 29.6875 51.5625C29.6875 49.4905 30.5106 47.5034 31.9757 46.0382C33.4409 44.5731 35.428 43.75 37.5 43.75C39.572 43.75 41.5591 44.5731 43.0243 46.0382C44.4894 47.5034 45.3125 49.4905 45.3125 51.5625Z" stroke="#717171" stroke-width="2"/>
<path d="M37.5 43.75V15.625" stroke="#717171" stroke-width="2" stroke-linecap="round"/>
</svg>
